<svg xmlns="http://www.w3.org/2000/svg" width="24" height="24" viewBox="0 0 24 24" fill="none" stroke="currentColor"
     stroke-width="2" stroke-linecap="round" stroke-linejoin="round"
     class="icon icon-tabler icons-tabler-outline icon-tabler-brand-bangumi">
    <path stroke="none" d="M0 0h24v24H0z" fill="none"/>
    <path d="M3 10a4 4 0 0 1 4 -4h10a4 4 0 0 1 4 4v6a4 4 0 0 1 -4 4h-10a4 4 0 0 1 -4 -4v-6z"/>
    <path d="M8 3l2 3"/>
    <path d="M16 3l-2 3"/>
    <path d="M7 12 L 9 12" stroke-width="2"/>
    <path d="M15 12 L 17 12" stroke-width="2"/>
    <path d="M10 17 L 14 17 L 12 14 Z" stroke-width="0"/>
</svg>
